<?xml version="1.0" encoding="UTF-8" standalone="no"?>
<svg
   viewBox="0 0 816 1056"
   height="1056"
   width="816"
   xml:space="preserve"
   id="svg2"
   version="1.1"
   sodipodi:docname="carta-digi-6linhas.svg"
   xmlns:inkscape="http://www.inkscape.org/namespaces/inkscape"
   xmlns:sodipodi="http://sodipodi.sourceforge.net/DTD/sodipodi-0.dtd"
   xmlns:xlink="http://www.w3.org/1999/xlink"
   xmlns="http://www.w3.org/2000/svg"
   xmlns:svg="http://www.w3.org/2000/svg"
   xmlns:rdf="http://www.w3.org/1999/02/22-rdf-syntax-ns#"
   xmlns:cc="http://creativecommons.org/ns#"
   xmlns:dc="http://purl.org/dc/elements/1.1/">
  
  <!-- Cabeçalho da carta -->
  <text
     id="text234"
     style="font-variant:normal;font-weight:normal;font-size:12px;font-family:ArialMT;-inkscape-font-specification:ArialMT;writing-mode:lr-tb;fill:#000000;fill-opacity:1;fill-rule:nonzero;stroke:none"
     transform="matrix(1,0,0,1,36,659.02)">
    <tspan id="tspan232" y="0" x="0 9.3360004 12 18.708">Olá,</tspan>
  </text>
  
  <text
     id="text262"
     style="font-variant:normal;font-weight:bold;font-size:12px;font-family:Arial;-inkscape-font-specification:Arial-BoldMT;writing-mode:lr-tb;fill:#000000;fill-opacity:1;fill-rule:nonzero;stroke:none"
     transform="matrix(1,0,0,1,36,611.14)">
    <tspan id="tspan260" y="0" x="0 8.6639996 15.336">Bem</tspan>
  </text>
  
  <text
     id="text272"
     style="font-variant:normal;font-weight:bold;font-size:12px;font-family:Arial;-inkscape-font-specification:Arial-BoldMT;writing-mode:lr-tb;fill:#000000;fill-opacity:1;fill-rule:nonzero;stroke:none"
     transform="matrix(1,0,0,1,62.064,611.14)">
    <tspan id="tspan272" y="0" x="0">-</tspan>
  </text>
  
  <text
     id="text284"
     style="font-variant:normal;font-weight:bold;font-size:12px;font-family:Arial;-inkscape-font-specification:Arial-BoldMT;writing-mode:lr-tb;fill:#000000;fill-opacity:1;fill-rule:nonzero;stroke:none"
     transform="matrix(1,0,0,1,66.144,611.14)">
    <tspan id="tspan284" y="0" x="0 6.48 9.816 17.148001 24.48 31.812 35.147999 41.868 45.203999 51.936001 55.271999 63.936001 67.272003 76.643997 79.980003">vindo/a à DIGI!</tspan>
  </text>
  
  <!-- Texto explicativo -->
  <text
     id="text314"
     style="font-variant:normal;font-weight:normal;font-size:12px;font-family:ArialMT;-inkscape-font-specification:ArialMT;writing-mode:lr-tb;fill:#000000;fill-opacity:1;fill-rule:nonzero;stroke:none"
     transform="matrix(1,0,0,1,36,563.14)">
    <tspan id="tspan312" y="0" x="0 8.0279999 14.028 17.364 23.988001 34.056 40.764 46.764 50.004002 60.071999 66.779999 69.444 72.660004 79.367996 82.704002 89.328003 96.036003 99.372002 106.104 112.104 114.768 121.344 127.344 137.412 144.12 150.72 157.42799 163.42799 166.76401 173.388 180.09599 184.092 187.42799 190.76401 197.48399">Estamos muito entusiasmados por ter</tspan>
  </text>
  
  <text
     id="text324"
     style="font-variant:normal;font-weight:normal;font-size:12px;font-family:ArialMT;-inkscape-font-specification:ArialMT;writing-mode:lr-tb;fill:#000000;fill-opacity:1;fill-rule:nonzero;stroke:none"
     transform="matrix(1,0,0,1,237.65,563.14)">
    <tspan id="tspan324" y="0" x="0">-</tspan>
  </text>
  
  <text
     id="text336"
     style="font-variant:normal;font-weight:normal;font-size:12px;font-family:ArialMT;-inkscape-font-specification:ArialMT;writing-mode:lr-tb;fill:#000000;fill-opacity:1;fill-rule:nonzero;stroke:none"
     transform="matrix(1,0,0,1,241.61,563.14)">
    <tspan id="tspan336" y="0" x="0 3.336 9.96 13.296 19.296 26.028 32.627998 39.335999 46.043999 52.043999 58.043999 64.751999">te connosco.</tspan>
  </text>
  
  <!-- Texto sobre vantagens -->
  <text
     id="text366"
     style="font-variant:normal;font-weight:normal;font-size:12px;font-family:ArialMT;-inkscape-font-specification:ArialMT;writing-mode:lr-tb;fill:#000000;fill-opacity:1;fill-rule:nonzero;stroke:none"
     transform="matrix(1,0,0,1,36,515.11)">
    <tspan id="tspan364" y="0" x="0 8.0279999 14.628 21.336 25.332001 32.004002 35.34 38.723999 41.388 48.060001 51.431999 58.032001 64.739998 71.447998 78.155998 84.036003 87.372002 94.103996 100.812 106.692 110.16 114 120.6 123.936 130.668 134.664 138 144.696 151.40401 157.40401 160.74001 166.644 173.35201 180.06 183.3 190.008 196.608 203.31599 210.024 216.024 219.26401 225.972 232.67999 236.01601 241.92 248.62801 252.62399 255.96001 264.58801 267.92401 277.29599 280.63199 284.004 287.34 293.24399 299.952 309.91199 316.62 319.95599 323.328 330.03601 334.03201 337.36801 343.23599 349.944 359.90399 366.612 370.608 377.28 380.616 387.35999 390.60001 397.30801 404.01599 410.01599 416.01599 422.616 425.952 435.948 442.64401 445.30801 451.98001 458.71201 462.70801 465.91199 472.62 476.616 483.28799 489.28799 496.008 499.34399 505.96799 512.67603">Agora, já podes desfrutar das vantagens de ser DIGI, como ter sempre o nosso melhor preço ou </tspan>
  </text>
  
  <text
     id="text376"
     style="font-variant:normal;font-weight:normal;font-size:12px;font-family:ArialMT;-inkscape-font-specification:ArialMT;writing-mode:lr-tb;fill:#000000;fill-opacity:1;fill-rule:nonzero;stroke:none"
     transform="matrix(1,0,0,1,36,499.15)">
    <tspan id="tspan376" y="0" x="0 3.9960001 10.668 16.667999 23.388 30.096001 36.804001 40.799999 44.004002 50.712002 60.672001 67.379997">receber uma </tspan>
  </text>
  
  <text
     id="text390"
     style="font-variant:normal;font-weight:normal;font-size:12px;font-family:ArialMT;-inkscape-font-specification:ArialMT;writing-mode:lr-tb;fill:#000000;fill-opacity:1;fill-rule:nonzero;stroke:none"
     transform="matrix(1,0,0,1,36,483.19)">
    <tspan id="tspan388" y="0" x="0 3.9960001 10.668 16.667999 23.388 30.096001 36.804001 40.799999 44.004002 50.712002 60.672001 67.379997">fatura sem surpresas.</tspan>
  </text>
  
  <!-- Texto sobre identificação -->
  <text
     id="text404"
     style="font-variant:normal;font-weight:normal;font-size:12px;font-family:ArialMT;-inkscape-font-specification:ArialMT;writing-mode:lr-tb;fill:#000000;fill-opacity:1;fill-rule:nonzero;stroke:none"
     transform="matrix(1,0,0,1,36,451.19)">
    <tspan id="tspan402" y="0" x="0 8.0279999 18.096001 21.431999 27.336 34.043999 40.043999 46.751999 49.992001 56.700001 63.408001 66.648003 73.356003 80.064003 85.944 88.608002 95.279999 102.012 105.348 108.72 115.32 121.92 128.62801 131.964 138.696 145.40401 151.40401 154.06799 157.284 163.992 169.992 173.328 179.952 190.02 193.356 199.25999 205.968 212.67599 215.916 222.62399 228.62399 231.96001 238.692">Aqui, encontras o teu número de telemóvel e o código ICCID</tspan>
  </text>
  
  <text
     id="text416"
     style="font-variant:normal;font-weight:normal;font-size:12px;font-family:ArialMT;-inkscape-font-specification:ArialMT;writing-mode:lr-tb;fill:#000000;fill-opacity:1;fill-rule:nonzero;stroke:none"
     transform="matrix(1,0,0,1,36,435.23)">
    <tspan id="tspan414" y="0" x="0 8.0279999 14.628 21.336 25.332001 32.004002 35.34 38.723999 41.388 48.060001 51.431999 58.032001 64.739998 71.447998 78.155998 84.036003 87.372002 94.103996 100.812 106.692 110.16 114 120.6 123.936 130.668 134.664 138 144.696 151.40401 157.40401 160.74001 166.644 173.35201 180.06 183.3 190.008 196.608 203.31599 210.024 216.024 219.26401 225.972 232.67999 236.01601 241.92 248.62801 252.62399 255.96001 264.58801 267.92401 277.29599 280.63199 284.004 287.34 293.24399 299.952 309.91199 316.62 319.95599 323.328 330.03601 334.03201 337.36801 343.23599 349.944 359.90399 366.612 370.608 377.28 380.616 387.35999 390.60001 397.30801 404.01599 410.01599 416.01599 422.616 425.952 435.948 442.64401 445.30801 451.98001 458.71201 462.70801 465.91199 472.62 476.616 483.28799 489.28799 496.008 499.34399 505.96799 512.67603">associado ao teu novo cartão SIM, para que possas identificá-lo</tspan>
  </text>
  
  <text
     id="text428"
     style="font-variant:normal;font-weight:normal;font-size:12px;font-family:ArialMT;-inkscape-font-specification:ArialMT;writing-mode:lr-tb;fill:#000000;fill-opacity:1;fill-rule:nonzero;stroke:none"
     transform="matrix(1,0,0,1,36,419.27)">
    <tspan id="tspan426" y="0" x="0 8.0279999 14.628 21.336 25.332001 32.004002 35.34 38.723999 41.388 48.060001 51.431999 58.032001 64.739998 71.447998 78.155998 84.036003 87.372002 94.103996 100.812 106.692 110.16 114 120.6 123.936 130.668 134.664 138 144.696 151.40401 157.40401 160.74001 166.644 173.35201 180.06 183.3 190.008 196.608 203.31599 210.024 216.024 219.26401 225.972 232.67999 236.01601 241.92 248.62801 252.62399 255.96001 264.58801 267.92401 277.29599 280.63199 284.004 287.34 293.24399 299.952 309.91199 316.62 319.95599 323.328 330.03601 334.03201 337.36801 343.23599 349.944 359.90399 366.612 370.608 377.28 380.616 387.35999 390.60001 397.30801 404.01599 410.01599 416.01599 422.616 425.952 435.948 442.64401 445.30801 451.98001 458.71201 462.70801 465.91199 472.62 476.616 483.28799 489.28799 496.008 499.34399 505.96799 512.67603">facilmente caso tenhas contratado mais do que um número.</tspan>
  </text>
  
  <!-- Cabeçalho da tabela -->
  <text
     id="text520"
     style="font-variant:normal;font-weight:bold;font-size:12px;font-family:Arial;-inkscape-font-specification:Arial-BoldMT;writing-mode:lr-tb;fill:#000000;fill-opacity:1;fill-rule:nonzero;stroke:none"
     transform="matrix(1,0,0,1,72.024,387.19)">
    <tspan id="tspan520" y="0" x="0 8.6639996 15.96 26.628 33.348 38.015999">Número</tspan>
  </text>
  
  <text
     id="text540"
     style="font-variant:normal;font-weight:bold;font-size:12px;font-family:Arial;-inkscape-font-specification:Arial-BoldMT;writing-mode:lr-tb;fill:#000000;fill-opacity:1;fill-rule:nonzero;stroke:none"
     transform="matrix(1,0,0,1,230.93,387.19)">
    <tspan id="tspan540" y="0" x="0 8.6639996 15.96 23.292 26.628 33.959999 41.292 44.627998 47.987999 56.652 65.267998">Código ICCI</tspan>
  </text>
  
  <text
     id="text552"
     style="font-variant:normal;font-weight:bold;font-size:12px;font-family:Arial;-inkscape-font-specification:Arial-BoldMT;writing-mode:lr-tb;fill:#000000;fill-opacity:1;fill-rule:nonzero;stroke:none"
     transform="matrix(1,0,0,1,299.57,387.19)">
    <tspan id="tspan552" y="0" x="0 8.6639996 11.88 18.587999 25.296 29.964001 33.959999 40.632">D cartão</tspan>
  </text>
  
  <!-- Linha horizontal do cabeçalho -->
  <path
     id="path584"
     style="fill:#000000;fill-opacity:1;fill-rule:evenodd;stroke:none"
     d="m 72.024,384.91 h 372.17 v 0.96002 H 72.024 Z" />
  
  <!-- 6 linhas de dados com placeholders -->
  <text
     xml:space="preserve"
     style="font-size:10px;fill:#000000;stroke-width:0.75"
     x="72.088562"
     y="-369.69745"
     id="text1"
     transform="scale(1,1)"">
    <tspan sodipodi:role="line" style="font-size:10px;stroke-width:0.75" x="72.088562" y="-369.69745" id="tspan2">968200392</tspan>
  </text>
  <text
     xml:space="preserve"
     style="font-size:10px;fill:#000000;stroke-width:0.75"
     x="231.85237"
     y="-369.69745"
     id="text3"
     transform="scale(1,1)"">
    <tspan sodipodi:role="line" id="tspan3" style="font-size:10px;stroke-width:0.75" x="231.85237" y="-369.69745">8935102241115530665</tspan>
  </text>
  
  <text
     xml:space="preserve"
     style="font-size:10px;fill:#000000;stroke-width:0.75"
     x="72.088562"
     y="-353.69745"
     id="text4"
     transform="scale(1,1)"">
    <tspan sodipodi:role="line" style="font-size:10px;stroke-width:0.75" x="72.088562" y="-353.69745" id="tspan4">966640970</tspan>
  </text>
  <text
     xml:space="preserve"
     style="font-size:10px;fill:#000000;stroke-width:0.75"
     x="231.85237"
     y="-353.69745"
     id="text5"
     transform="scale(1,1)"">
    <tspan sodipodi:role="line" id="tspan5" style="font-size:10px;stroke-width:0.75" x="231.85237" y="-353.69745">8935102241115530657</tspan>
  </text>
  
  <text
     xml:space="preserve"
     style="font-size:10px;fill:#000000;stroke-width:0.75"
     x="72.088562"
     y="-337.69745"
     id="text6"
     transform="scale(1,1)"">
    <tspan sodipodi:role="line" style="font-size:10px;stroke-width:0.75" x="72.088562" y="-337.69745" id="tspan6">962355566</tspan>
  </text>
  <text
     xml:space="preserve"
     style="font-size:10px;fill:#000000;stroke-width:0.75"
     x="231.85237"
     y="-337.69745"
     id="text7"
     transform="scale(1,1)"">
    <tspan sodipodi:role="line" id="tspan7" style="font-size:10px;stroke-width:0.75" x="231.85237" y="-337.69745">8935102241115530632</tspan>
  </text>
  
  <text
     xml:space="preserve"
     style="font-size:10px;fill:#000000;stroke-width:0.75"
     x="72.088562"
     y="-321.69745"
     id="text8"
     transform="scale(1,1)"">
    <tspan sodipodi:role="line" style="font-size:10px;stroke-width:0.75" x="72.088562" y="-321.69745" id="tspan8">928034240</tspan>
  </text>
  <text
     xml:space="preserve"
     style="font-size:10px;fill:#000000;stroke-width:0.75"
     x="231.85237"
     y="-321.69745"
     id="text9"
     transform="scale(1,1)"">
    <tspan sodipodi:role="line" id="tspan9" style="font-size:10px;stroke-width:0.75" x="231.85237" y="-321.69745">8935102241115530624</tspan>
  </text>
  
  <text
     xml:space="preserve"
     style="font-size:10px;fill:#000000;stroke-width:0.75"
     x="72.088562"
     y="-305.69745"
     id="text10"
     transform="scale(1,1)"">
    <tspan sodipodi:role="line" style="font-size:10px;stroke-width:0.75" x="72.088562" y="-305.69745" id="tspan10">964198653</tspan>
  </text>
  <text
     xml:space="preserve"
     style="font-size:10px;fill:#000000;stroke-width:0.75"
     x="231.85237"
     y="-305.69745"
     id="text11"
     transform="scale(1,1)"">
    <tspan sodipodi:role="line" id="tspan11" style="font-size:10px;stroke-width:0.75" x="231.85237" y="-305.69745">8935102241115530640</tspan>
  </text>
  
  <text
     xml:space="preserve"
     style="font-size:10px;fill:#000000;stroke-width:0.75"
     x="72.088562"
     y="-289.69745"
     id="text12"
     transform="scale(1,1)"">
    <tspan sodipodi:role="line" style="font-size:10px;stroke-width:0.75" x="72.088562" y="-289.69745" id="tspan12">928053845</tspan>
  </text>
  <text
     xml:space="preserve"
     style="font-size:10px;fill:#000000;stroke-width:0.75"
     x="231.85237"
     y="-289.69745"
     id="text13"
     transform="scale(1,1)"">
    <tspan sodipodi:role="line" id="tspan13" style="font-size:10px;stroke-width:0.75" x="231.85237" y="-289.69745">8935102241115530673</tspan>
  </text>
  
  <!-- Informações de contacto -->
  <text
     id="text690"
     style="font-variant:normal;font-weight:normal;font-size:12px;font-family:ArialMT;-inkscape-font-specification:ArialMT;writing-mode:lr-tb;fill:#000000;fill-opacity:1;fill-rule:nonzero;stroke:none"
     transform="matrix(1,0,0,1,36,291.29)">
    <tspan id="tspan690" y="0" x="0 8.0279999 18.096001 21.431999 27.336 34.043999 40.043999 46.751999 49.992001 56.700001 63.408001 66.648003 73.356003 80.064003 85.944 88.608002 95.279999 102.012 105.348 108.72 115.32 121.92 128.62801 131.964 138.696 145.40401 151.40401 154.06799 157.284 163.992 169.992 173.328 179.952 190.02 193.356 199.25999 205.968 212.67599 215.916 222.62399 228.62399 231.96001 238.692">Em caso de dúvida, não hesites em contactar</tspan>
  </text>
  
  <text
     id="text702"
     style="font-variant:normal;font-weight:normal;font-size:12px;font-family:ArialMT;-inkscape-font-specification:ArialMT;writing-mode:lr-tb;fill:#000000;fill-opacity:1;fill-rule:nonzero;stroke:none"
     transform="matrix(1,0,0,1,278.81,291.29)">
    <tspan id="tspan702" y="0" x="0">-</tspan>
  </text>
  
  <text
     id="text714"
     style="font-variant:normal;font-weight:normal;font-size:12px;font-family:ArialMT;-inkscape-font-specification:ArialMT;writing-mode:lr-tb;fill:#000000;fill-opacity:1;fill-rule:nonzero;stroke:none"
     transform="matrix(1,0,0,1,282.77,291.29)">
    <tspan id="tspan714" y="0" x="0 6.7080002 13.416 19.416 22.752001 29.483999 32.82 36.816002 43.512001 49.391998 56.099998 62.099998 65.435997 72.059998 78.767998">nos através do </tspan>
  </text>
  
  <text
     id="text726"
     style="font-variant:normal;font-weight:bold;font-size:12px;font-family:Arial;-inkscape-font-specification:Arial-BoldMT;writing-mode:lr-tb;fill:#000000;fill-opacity:1;fill-rule:nonzero;stroke:none"
     transform="matrix(1,0,0,1,364.99,291.29)">
    <tspan id="tspan726" y="0" x="0 6.5999999 13.308 20.016001 23.256001 29.964001 36.563999 39.900002 46.632 53.34 56.580002 63.287998">923 30 90 30</tspan>
  </text>
  
  <text
     id="text738"
     style="font-variant:normal;font-weight:normal;font-size:12px;font-family:ArialMT;-inkscape-font-specification:ArialMT;writing-mode:lr-tb;fill:#000000;fill-opacity:1;fill-rule:nonzero;stroke:none"
     transform="matrix(1,0,0,1,435.07,291.29)">
    <tspan id="tspan738" y="0" x="0 3.9960001 10.56 14.556 21.228001 24.563999 31.308001 33.972 37.307999 44.015999 47.256001 53.964001 60.672001 64.008003 68.003998 74.592003 81.300003 87.900002 91.236 99.900002 103.236 112.608 115.944 119.316 126.024">(gratuito na rede DIGI e </tspan>
  </text>
  
  <text
     id="text750"
     style="font-variant:normal;font-weight:normal;font-size:12px;font-family:ArialMT;-inkscape-font-specification:ArialMT;writing-mode:lr-tb;fill:#000000;fill-opacity:1;fill-rule:nonzero;stroke:none"
     transform="matrix(1,0,0,1,36,275.33)">
    <tspan id="tspan750" y="0" x="0 6 12.708 22.775999 26.112 32.015999 38.723999 44.723999 48.060001 54.792 58.032001 64.739998 71.447998 74.688004 81.288002 91.356003 98.064003 101.4 107.4 114.024 120.624 130.692 137.39999 144 150.70799 154.04401 160.668 167.37601 171.37199 181.29601 188.004 190.668 194.004 200.71201 207.42 211.416 217.98 221.31599 228.048 234.64799 237.98399 241.98 248.67599 254.67599 258.01199 264.74399 271.34399 278.052 282.048 288.72 295.332 302.04001 306.03601 312.70801 318.70801 322.70401 326.04001">com custo de uma chamada normal para outros operadores). </tspan>
  </text>
  
  <text
     id="text762"
     style="font-variant:normal;font-weight:normal;font-size:12px;font-family:ArialMT;-inkscape-font-specification:ArialMT;writing-mode:lr-tb;fill:#000000;fill-opacity:1;fill-rule:nonzero;stroke:none"
     transform="matrix(1,0,0,1,365.71,275.33)">
    <tspan id="tspan762" y="0" x="0 8.0279999 14.028 17.268 23.976 33.936001 40.644001 46.644001 49.98 56.712002 63.312 70.019997 72.683998 76.019997 82.727997 89.435997 93.276001 99.984001 103.32 106.692 113.292 116.628 123.36 126.024 132.60001 139.308 146.01601 149.256">Estamos aqui para te ajudar.</tspan>
  </text>
  
  <!-- Assinatura -->
  <text
     id="text790"
     style="font-variant:normal;font-weight:normal;font-size:12px;font-family:ArialMT;-inkscape-font-specification:ArialMT;writing-mode:lr-tb;fill:#000000;fill-opacity:1;fill-rule:nonzero;stroke:none"
     transform="matrix(1,0,0,1,36,227.33)">
    <tspan id="tspan790" y="0" x="0 8.0279999 11.364 18.096001 21.431999 28.164 32.004002 38.712002 44.591999 51.299999">Até breve,</tspan>
  </text>
  
  <text
     id="text810"
     style="font-variant:normal;font-weight:bold;font-size:12px;font-family:Arial;-inkscape-font-specification:Arial-BoldMT;writing-mode:lr-tb;fill:#000000;fill-opacity:1;fill-rule:nonzero;stroke:none"
     transform="matrix(1,0,0,1,36,203.3)">
    <tspan id="tspan810" y="0" x="0 7.9200001 11.388 19.416 26.747999 34.080002 37.416 44.748001 51.444 54.779999 63.444 66.779999 76.152">A Equipa DIGI</tspan>
  </text>
  
  <text
     id="text822"
     style="font-variant:normal;font-weight:normal;font-size:12px;font-family:ArialMT;-inkscape-font-specification:ArialMT;writing-mode:lr-tb;fill:#000000;fill-opacity:1;fill-rule:nonzero;stroke:none"
     transform="matrix(1,0,0,1,115.58,203.3)">
    <tspan id="tspan822" y="0" x="0">.</tspan>
  </text>
  
</svg> 